<svg width="266" height="17" viewBox="0 0 266 17" fill="none" xmlns="http://www.w3.org/2000/svg">
<path fill-rule="evenodd" clip-rule="evenodd" d="M88.1846 1.43964C58.8515 1.10193 29.3987 2.3361 1.00662 7.51839C0.500058 7.61049 0.289766 7.79163 0.24832 7.83308C0.00578396 8.07868 -0.0203567 8.33963 0.0103441 8.55454C0.0287646 8.68502 0.153157 9.23609 0.833179 9.29288C1.3029 9.33126 4.63696 9.06264 5.92332 8.99356C11.979 8.66967 18.0226 8.20762 24.0629 7.67343C37.7586 6.46689 51.4357 5.42306 65.1528 4.47288C72.8541 3.93868 80.5585 3.49658 88.2582 3.13431C106.782 3.35075 125.259 4.19503 143.391 5.06693C136.184 5.51056 129.562 5.96032 124.071 6.25198C114.811 6.74319 105.569 7.32343 96.328 8.08788C91.5801 8.47932 86.8383 8.90454 82.0996 9.40649C81.5747 9.46329 80.3789 9.52161 79.8002 9.59069C79.5546 9.61832 79.3765 9.66284 79.2967 9.69355C78.7963 9.88696 78.7333 10.283 78.7272 10.4825C78.7241 10.6038 78.7656 11.2654 79.6099 11.3944C118.865 17.4455 159.82 10.4058 199.217 16.2881C199.679 16.3571 200.112 16.0379 200.181 15.5743C200.25 15.1122 199.931 14.6793 199.467 14.6103C162.362 9.07031 123.874 14.994 86.7217 10.6453C89.9683 10.3306 93.2164 10.0466 96.4676 9.77796C105.692 9.01505 114.917 8.43635 124.161 7.94513C133.464 7.45239 146.039 6.48991 159.202 5.88357C170.498 6.51293 181.788 7.21905 193.086 7.81771C197.852 8.06946 202.62 8.27823 207.385 8.53458C209.344 8.63897 214.383 9.07645 215.114 8.91373C215.682 8.78633 215.818 8.37955 215.852 8.17539C215.888 7.95434 215.866 7.67956 215.608 7.41707C215.528 7.33418 215.289 7.16226 214.798 7.02104C201.512 3.21567 179.757 3.27554 159.383 4.19502C155 3.94942 150.618 3.71609 146.234 3.50579C136.198 3.02226 126.051 2.53718 115.846 2.15495C144.605 1.44423 173.378 1.6484 202.158 2.16263C214.242 2.37907 246.814 3.68386 259.642 4.83668C259.486 4.99786 259.394 5.22197 259.404 5.46604C259.426 5.93269 259.823 6.29496 260.292 6.27347C262.938 6.15067 264.469 5.9941 265.075 5.83292C265.452 5.73314 265.658 5.5735 265.753 5.46911C265.987 5.21737 266.03 4.94719 265.984 4.69084C265.954 4.53119 265.882 4.3562 265.717 4.19502C265.606 4.0845 265.336 3.91566 264.875 3.80053C259.833 2.5464 216.577 0.724294 202.189 0.466407C164.168 -0.21208 126.161 -0.35022 88.1846 1.43964ZM204.513 6.68639C197.083 5.67787 188.374 5.32328 179.288 5.3463C183.916 5.61494 188.545 5.87744 193.177 6.12304C196.954 6.32413 200.734 6.49605 204.513 6.68639ZM53.1427 3.63014C43.3952 4.34854 33.6584 5.12526 23.914 5.98489C22.7888 6.08313 21.6652 6.17984 20.54 6.27501C31.316 4.95488 42.204 4.11521 53.1427 3.63014Z" fill="black"/>
</svg>
